<?xml version="1.0" standalone="no"?>
<svg version="1.0" xmlns="http://www.w3.org/2000/svg"
 width="1293.000000pt" height="329.000000pt" viewBox="0 0 1293.000000 329.000000"
 preserveAspectRatio="xMidYMid meet">
<rect width="100%" height="100%" fill="#000000"/>
<g transform="translate(0.000000,329.000000) scale(0.100000,-0.100000)"
fill="#ffffff" stroke="none">
<path d="M0 1645 l0 -1645 6465 0 6465 0 0 1645 0 1645 -6465 0 -6465 0 0
-1645z m1987 1310 c158 -47 267 -212 248 -375 -14 -123 -112 -254 -219 -295
-35 -14 -45 -23 -50 -47 -17 -85 16 -199 77 -265 53 -58 99 -83 227 -128 104
-36 104 -36 130 -17 200 148 463 49 526 -197 30 -118 -10 -257 -97 -336 -70
-63 -141 -90 -234 -89 -100 1 -169 31 -243 106 l-51 51 -118 -42 c-65 -24
-132 -52 -150 -63 -48 -29 -109 -103 -143 -172 l-30 -61 23 -15 c58 -39 112
-100 138 -155 25 -51 29 -73 29 -142 0 -112 -26 -181 -94 -248 -79 -78 -131
-100 -246 -100 -84 0 -102 3 -152 28 -84 41 -152 121 -179 209 -64 208 53 411
259 453 l54 11 27 65 c59 139 164 258 274 309 34 16 107 41 161 55 55 14 101
26 101 28 1 1 5 34 8 72 l7 70 -73 24 c-39 13 -97 35 -127 49 -74 35 -188 149
-225 226 -26 54 -30 72 -33 181 l-4 121 -49 17 c-144 52 -240 202 -226 355 22
231 237 381 454 317z m-958 -441 c313 -111 327 -115 373 -106 l48 9 31 -51
c17 -28 40 -61 52 -73 16 -18 17 -23 6 -27 -8 -2 -39 -12 -69 -22 -90 -29
-127 -23 -380 58 -129 41 -245 78 -258 82 l-22 7 2 -352 3 -353 250 -107 c138
-60 258 -109 269 -109 10 0 123 35 250 77 151 50 247 77 276 77 54 0 162 -33
157 -47 -13 -39 -591 -277 -671 -277 -23 0 -116 35 -263 99 -125 54 -238 101
-251 105 l-22 7 2 -383 3 -383 227 -90 227 -90 21 -57 c11 -32 37 -78 55 -103
19 -25 35 -50 35 -56 0 -18 -56 0 -270 86 -331 134 -441 183 -466 206 l-24 22
0 972 c0 742 3 974 12 983 7 7 25 12 42 12 16 0 176 -52 355 -116z m2265 100
c14 -14 16 -116 16 -977 0 -751 -3 -967 -13 -987 -13 -26 -28 -33 -587 -253
-135 -54 -254 -97 -265 -97 -11 0 -97 26 -192 58 l-172 57 29 44 c16 24 35 59
42 77 9 25 17 33 28 28 8 -3 74 -26 145 -50 l130 -45 332 148 333 148 0 191 0
191 -84 23 c-46 12 -89 25 -95 30 -9 5 -1 24 28 65 23 32 41 64 41 72 0 15 2
16 32 4 13 -4 35 -11 51 -15 l27 -6 0 530 c0 291 -3 530 -7 530 -3 0 -139 -50
-302 -112 -163 -61 -316 -113 -341 -115 -37 -4 -63 3 -145 40 -55 24 -108 47
-118 50 -17 7 -16 10 12 42 17 19 38 50 47 68 9 17 18 33 19 35 1 1 41 -11 87
-28 l85 -31 374 151 c381 153 430 167 463 134z m2196 -360 c115 -33 209 -123
252 -241 19 -53 21 -83 26 -370 6 -438 -9 -520 -112 -631 -146 -156 -456 -169
-625 -26 -46 38 -86 101 -113 175 -22 62 -23 74 -23 424 0 324 2 366 18 415
48 142 149 231 301 266 73 16 197 11 276 -12z m1123 -12 c129 -57 201 -171
222 -349 l7 -63 -116 0 -116 0 0 48 c0 57 -28 121 -65 150 -64 50 -185 55
-253 10 -81 -54 -96 -137 -90 -513 5 -304 12 -337 80 -389 46 -35 130 -52 185
-37 96 26 134 92 158 274 l6 47 -111 0 -111 0 3 103 3 102 213 3 212 3 0 -180
c0 -99 -5 -204 -11 -233 -28 -131 -107 -239 -212 -289 -226 -107 -498 -17
-600 199 l-32 67 -3 359 c-2 226 1 378 8 408 25 121 108 225 217 275 97 45
311 47 406 5z m1460 8 c142 -53 226 -177 227 -332 l0 -48 -110 0 -110 0 0 48
c0 95 -68 152 -180 152 -34 0 -74 -6 -90 -15 -96 -50 -104 -185 -16 -271 31
-29 78 -55 181 -99 168 -71 249 -123 293 -189 48 -73 65 -142 60 -251 -7 -158
-69 -253 -208 -319 -57 -27 -78 -31 -174 -34 -158 -6 -259 22 -345 94 -64 54
-110 169 -111 277 l0 47 109 0 109 0 7 -54 c8 -65 36 -112 85 -140 49 -30 180
-30 230 -1 97 56 92 229 -8 298 -20 14 -68 40 -107 57 -202 91 -240 113 -307
180 -59 59 -69 75 -88 139 -41 133 -14 279 68 372 37 42 118 88 187 106 74 19
226 10 298 -17z m3869 19 c173 -37 274 -150 293 -332 l7 -67 -110 0 -109 0 -5
51 c-9 92 -65 141 -167 147 -117 7 -181 -45 -181 -147 0 -91 45 -145 170 -203
255 -119 287 -137 333 -188 68 -75 91 -143 91 -265 1 -94 -1 -105 -32 -167
-40 -82 -111 -148 -190 -179 -71 -28 -247 -38 -331 -19 -171 37 -281 175 -281
351 l0 59 110 0 110 0 0 -43 c0 -60 36 -125 82 -149 78 -41 197 -33 257 18 40
33 58 110 41 172 -19 73 -76 119 -220 181 -210 89 -289 149 -340 259 -50 105
-35 282 32 379 84 122 261 179 440 142z m-7612 -581 l0 -568 230 0 230 0 0
-105 0 -105 -340 0 -340 0 0 673 0 672 110 0 110 0 0 -567z m2970 -105 l0
-673 -115 0 -115 0 0 675 0 676 115 -3 115 -3 0 -672z m2005 566 l0 -104 -167
-3 -168 -2 0 -566 0 -565 -112 3 -113 3 0 563 0 562 -167 0 -168 0 0 108 0
108 448 -1 447 -2 0 -104z m405 -461 l0 -568 250 0 250 0 0 -105 0 -105 -370
0 -370 0 0 668 c0 368 3 671 6 675 4 3 58 5 120 4 l114 -2 0 -567z m1269 532
c5 -19 87 -316 181 -660 94 -344 173 -631 175 -637 3 -10 -25 -13 -119 -13
l-123 0 -33 145 -34 145 -198 0 -197 0 -10 -37 c-5 -21 -22 -86 -37 -145 l-28
-108 -118 0 c-65 0 -118 2 -118 3 0 2 38 139 84 303 46 164 130 463 186 663
55 201 103 367 105 370 2 3 64 6 138 6 l135 0 11 -35z"/>
<path d="M1833 2759 c-77 -22 -120 -153 -74 -226 57 -91 202 -87 252 7 37 69
15 167 -46 201 -40 22 -93 29 -132 18z"/>
<path d="M2522 1680 c-36 -22 -71 -88 -72 -133 0 -79 64 -141 146 -141 86 0
144 57 144 143 0 118 -121 190 -218 131z"/>
<path d="M1641 842 c-75 -38 -101 -125 -62 -205 35 -73 123 -99 200 -59 52 26
74 62 74 124 1 71 -23 114 -76 139 -53 23 -92 24 -136 1z"/>
<path d="M5245 2055 c-51 -18 -101 -72 -115 -124 -7 -27 -10 -153 -8 -369 3
-297 5 -330 22 -365 67 -134 301 -137 374 -4 15 28 17 71 20 372 3 293 1 345
-13 382 -39 101 -163 149 -280 108z"/>
<path d="M10827 1955 c-3 -11 -36 -135 -73 -275 -36 -140 -69 -260 -71 -267
-4 -10 29 -13 146 -13 l151 0 -6 28 c-86 340 -142 543 -147 527z"/>
</g>
</svg>
